<svg xmlns="http://www.w3.org/2000/svg" viewBox="0 0 24 24">
  <rect width="24" height="24" rx="4" fill="#3178C6"/>
  <path d="M11.5 13.5H9.3V7H7.7V5.5H13.1V7H11.5V13.5ZM17.9 7.6C17.4 7.2 16.7 7 15.9 7C15.1 7 14.5 7.2 14.1 7.6C13.7 8 13.5 8.5 13.5 9.1C13.5 9.7 13.7 10.2 14.1 10.6C14.5 11 15.2 11.3 16.1 11.6C16.8 11.8 17.3 12.1 17.6 12.4C17.9 12.7 18.1 13.2 18.1 13.8C18.1 14.5 17.8 15.1 17.2 15.5C16.6 15.9 15.8 16.1 14.8 16.1C14 16.1 13.2 15.9 12.5 15.5L13.1 14.1C13.6 14.4 14.2 14.6 14.8 14.6C15.4 14.6 15.8 14.5 16.2 14.2C16.5 13.9 16.7 13.5 16.7 13.1C16.7 12.6 16.5 12.2 16.1 11.9C15.7 11.6 15.1 11.3 14.3 11C13.6 10.7 13.1 10.4 12.7 10C12.3 9.6 12.1 9 12.1 8.3C12.1 7.5 12.4 6.9 13 6.4C13.6 5.9 14.4 5.6 15.4 5.6C16.2 5.6 17 5.8 17.6 6.2L17.9 7.6Z" fill="#FFFFFF"/>
</svg>
